<mxfile host="app.diagrams.net" modified="2020-06-15T10:16:14.038Z" agent="5.0 (Windows NT 10.0; Win64; x64) AppleWebKit/537.36 (KHTML, like Gecko) Chrome/81.0.4044.138 Safari/537.36 OPR/68.0.3618.125" etag="cWlrRBwt6Xbtta5VlwJp" version="13.2.4" type="github">
  <diagram id="C5RBs43oDa-KdzZeNtuy" name="Page-1">
    <mxGraphModel dx="2147" dy="1686" grid="1" gridSize="10" guides="1" tooltips="1" connect="1" arrows="1" fold="1" page="1" pageScale="1" pageWidth="827" pageHeight="1169" math="0" shadow="0">
      <root>
        <mxCell id="WIyWlLk6GJQsqaUBKTNV-0" />
        <mxCell id="WIyWlLk6GJQsqaUBKTNV-1" parent="WIyWlLk6GJQsqaUBKTNV-0" />
        <mxCell id="bpSx_ZteRgmQ5gLjHNtr-38" style="edgeStyle=orthogonalEdgeStyle;rounded=0;orthogonalLoop=1;jettySize=auto;html=1;entryX=0.5;entryY=1;entryDx=0;entryDy=0;" edge="1" parent="WIyWlLk6GJQsqaUBKTNV-1" source="bpSx_ZteRgmQ5gLjHNtr-7" target="bpSx_ZteRgmQ5gLjHNtr-11">
          <mxGeometry relative="1" as="geometry" />
        </mxCell>
        <mxCell id="bpSx_ZteRgmQ5gLjHNtr-7" value="role" style="swimlane;fontStyle=0;align=center;verticalAlign=top;childLayout=stackLayout;horizontal=1;startSize=26;horizontalStack=0;resizeParent=1;resizeLast=0;collapsible=1;marginBottom=0;rounded=0;shadow=0;strokeWidth=1;" vertex="1" parent="WIyWlLk6GJQsqaUBKTNV-1">
          <mxGeometry x="360" y="200" width="200" height="120" as="geometry">
            <mxRectangle x="330" y="360" width="170" height="26" as="alternateBounds" />
          </mxGeometry>
        </mxCell>
        <mxCell id="bpSx_ZteRgmQ5gLjHNtr-8" value="id serial primary key,&#xa;name varcar(2000),&#xa;user_id int references user(id)&#xa;" style="text;align=left;verticalAlign=top;spacingLeft=4;spacingRight=4;overflow=hidden;rotatable=0;points=[[0,0.5],[1,0.5]];portConstraint=eastwest;" vertex="1" parent="bpSx_ZteRgmQ5gLjHNtr-7">
          <mxGeometry y="26" width="200" height="54" as="geometry" />
        </mxCell>
        <mxCell id="bpSx_ZteRgmQ5gLjHNtr-9" value="" style="line;html=1;strokeWidth=1;align=left;verticalAlign=middle;spacingTop=-1;spacingLeft=3;spacingRight=3;rotatable=0;labelPosition=right;points=[];portConstraint=eastwest;" vertex="1" parent="bpSx_ZteRgmQ5gLjHNtr-7">
          <mxGeometry y="80" width="200" height="8" as="geometry" />
        </mxCell>
        <mxCell id="bpSx_ZteRgmQ5gLjHNtr-11" value="rules" style="swimlane;fontStyle=0;align=center;verticalAlign=top;childLayout=stackLayout;horizontal=1;startSize=26;horizontalStack=0;resizeParent=1;resizeLast=0;collapsible=1;marginBottom=0;rounded=0;shadow=0;strokeWidth=1;" vertex="1" parent="WIyWlLk6GJQsqaUBKTNV-1">
          <mxGeometry x="360" width="200" height="120" as="geometry">
            <mxRectangle x="330" y="360" width="170" height="26" as="alternateBounds" />
          </mxGeometry>
        </mxCell>
        <mxCell id="bpSx_ZteRgmQ5gLjHNtr-12" value="id serial primary key,&#xa;name varcar(2000)" style="text;align=left;verticalAlign=top;spacingLeft=4;spacingRight=4;overflow=hidden;rotatable=0;points=[[0,0.5],[1,0.5]];portConstraint=eastwest;" vertex="1" parent="bpSx_ZteRgmQ5gLjHNtr-11">
          <mxGeometry y="26" width="200" height="54" as="geometry" />
        </mxCell>
        <mxCell id="bpSx_ZteRgmQ5gLjHNtr-13" value="" style="line;html=1;strokeWidth=1;align=left;verticalAlign=middle;spacingTop=-1;spacingLeft=3;spacingRight=3;rotatable=0;labelPosition=right;points=[];portConstraint=eastwest;" vertex="1" parent="bpSx_ZteRgmQ5gLjHNtr-11">
          <mxGeometry y="80" width="200" height="8" as="geometry" />
        </mxCell>
        <mxCell id="bpSx_ZteRgmQ5gLjHNtr-14" style="edgeStyle=orthogonalEdgeStyle;rounded=0;orthogonalLoop=1;jettySize=auto;html=1;entryX=0;entryY=0.5;entryDx=0;entryDy=0;" edge="1" parent="WIyWlLk6GJQsqaUBKTNV-1" source="bpSx_ZteRgmQ5gLjHNtr-1" target="bpSx_ZteRgmQ5gLjHNtr-8">
          <mxGeometry relative="1" as="geometry" />
        </mxCell>
        <mxCell id="bpSx_ZteRgmQ5gLjHNtr-18" value="&lt;font face=&quot;Times New Roman&quot; style=&quot;font-size: 18px&quot;&gt;1..*&lt;/font&gt;" style="text;html=1;align=center;verticalAlign=middle;resizable=0;points=[];autosize=1;" vertex="1" parent="WIyWlLk6GJQsqaUBKTNV-1">
          <mxGeometry x="240" y="260" width="40" height="20" as="geometry" />
        </mxCell>
        <mxCell id="bpSx_ZteRgmQ5gLjHNtr-19" value="&lt;font face=&quot;Times New Roman&quot; style=&quot;font-size: 18px&quot;&gt;1&lt;/font&gt;" style="text;html=1;align=center;verticalAlign=middle;resizable=0;points=[];autosize=1;" vertex="1" parent="WIyWlLk6GJQsqaUBKTNV-1">
          <mxGeometry x="340" y="260" width="20" height="20" as="geometry" />
        </mxCell>
        <mxCell id="bpSx_ZteRgmQ5gLjHNtr-20" style="edgeStyle=orthogonalEdgeStyle;rounded=0;orthogonalLoop=1;jettySize=auto;html=1;" edge="1" parent="WIyWlLk6GJQsqaUBKTNV-1">
          <mxGeometry relative="1" as="geometry">
            <mxPoint x="-40" y="-61.5" as="sourcePoint" />
            <mxPoint x="120" y="-61.5" as="targetPoint" />
            <Array as="points">
              <mxPoint x="70" y="-61.5" />
              <mxPoint x="70" y="-61.5" />
            </Array>
          </mxGeometry>
        </mxCell>
        <mxCell id="bpSx_ZteRgmQ5gLjHNtr-21" style="edgeStyle=orthogonalEdgeStyle;rounded=0;orthogonalLoop=1;jettySize=auto;html=1;" edge="1" parent="WIyWlLk6GJQsqaUBKTNV-1">
          <mxGeometry relative="1" as="geometry">
            <mxPoint x="-40" y="-1.5" as="sourcePoint" />
            <mxPoint x="120" y="-1.5" as="targetPoint" />
          </mxGeometry>
        </mxCell>
        <mxCell id="bpSx_ZteRgmQ5gLjHNtr-22" style="edgeStyle=orthogonalEdgeStyle;rounded=0;orthogonalLoop=1;jettySize=auto;html=1;" edge="1" parent="WIyWlLk6GJQsqaUBKTNV-1">
          <mxGeometry relative="1" as="geometry">
            <mxPoint x="-40" y="58.5" as="sourcePoint" />
            <mxPoint x="120" y="58.5" as="targetPoint" />
          </mxGeometry>
        </mxCell>
        <mxCell id="bpSx_ZteRgmQ5gLjHNtr-27" value="&lt;font face=&quot;Times New Roman&quot; style=&quot;font-size: 18px&quot;&gt;1..*&lt;/font&gt;" style="text;html=1;align=center;verticalAlign=middle;resizable=0;points=[];autosize=1;" vertex="1" parent="WIyWlLk6GJQsqaUBKTNV-1">
          <mxGeometry x="100" y="-50.5" width="40" height="20" as="geometry" />
        </mxCell>
        <mxCell id="bpSx_ZteRgmQ5gLjHNtr-28" value="&lt;font face=&quot;Times New Roman&quot; style=&quot;font-size: 18px&quot;&gt;1&lt;/font&gt;" style="text;html=1;align=center;verticalAlign=middle;resizable=0;points=[];autosize=1;" vertex="1" parent="WIyWlLk6GJQsqaUBKTNV-1">
          <mxGeometry x="-40" y="-50.5" width="20" height="20" as="geometry" />
        </mxCell>
        <mxCell id="bpSx_ZteRgmQ5gLjHNtr-29" value="&lt;font face=&quot;Times New Roman&quot; style=&quot;font-size: 18px&quot;&gt;1&lt;/font&gt;" style="text;html=1;align=center;verticalAlign=middle;resizable=0;points=[];autosize=1;" vertex="1" parent="WIyWlLk6GJQsqaUBKTNV-1">
          <mxGeometry x="110" y="9.5" width="20" height="20" as="geometry" />
        </mxCell>
        <mxCell id="bpSx_ZteRgmQ5gLjHNtr-30" value="&lt;span style=&quot;font-family: &amp;#34;times new roman&amp;#34; ; font-size: 18px&quot;&gt;1..*&lt;/span&gt;" style="text;html=1;align=center;verticalAlign=middle;resizable=0;points=[];autosize=1;" vertex="1" parent="WIyWlLk6GJQsqaUBKTNV-1">
          <mxGeometry x="-50" y="9.5" width="40" height="20" as="geometry" />
        </mxCell>
        <mxCell id="bpSx_ZteRgmQ5gLjHNtr-31" value="&lt;font face=&quot;Times New Roman&quot; style=&quot;font-size: 18px&quot;&gt;1..*&lt;/font&gt;" style="text;html=1;align=center;verticalAlign=middle;resizable=0;points=[];autosize=1;" vertex="1" parent="WIyWlLk6GJQsqaUBKTNV-1">
          <mxGeometry x="100" y="69.5" width="40" height="20" as="geometry" />
        </mxCell>
        <mxCell id="bpSx_ZteRgmQ5gLjHNtr-32" value="&lt;span style=&quot;font-family: &amp;#34;times new roman&amp;#34; ; font-size: 18px&quot;&gt;1..*&lt;/span&gt;" style="text;html=1;align=center;verticalAlign=middle;resizable=0;points=[];autosize=1;" vertex="1" parent="WIyWlLk6GJQsqaUBKTNV-1">
          <mxGeometry x="-50" y="69.5" width="40" height="20" as="geometry" />
        </mxCell>
        <mxCell id="bpSx_ZteRgmQ5gLjHNtr-35" value="&lt;font face=&quot;Times New Roman&quot; style=&quot;font-size: 18px&quot;&gt;one-to-many&lt;/font&gt;" style="text;html=1;align=center;verticalAlign=middle;resizable=0;points=[];autosize=1;" vertex="1" parent="WIyWlLk6GJQsqaUBKTNV-1">
          <mxGeometry x="120" y="-80.5" width="110" height="20" as="geometry" />
        </mxCell>
        <mxCell id="bpSx_ZteRgmQ5gLjHNtr-36" value="&lt;font face=&quot;Times New Roman&quot; style=&quot;font-size: 18px&quot;&gt;many-to-one&lt;/font&gt;" style="text;html=1;align=center;verticalAlign=middle;resizable=0;points=[];autosize=1;" vertex="1" parent="WIyWlLk6GJQsqaUBKTNV-1">
          <mxGeometry x="120" y="-20.5" width="110" height="20" as="geometry" />
        </mxCell>
        <mxCell id="bpSx_ZteRgmQ5gLjHNtr-37" value="&lt;font face=&quot;Times New Roman&quot; style=&quot;font-size: 18px&quot;&gt;many-to-many&lt;br&gt;&lt;/font&gt;" style="text;html=1;align=center;verticalAlign=middle;resizable=0;points=[];autosize=1;" vertex="1" parent="WIyWlLk6GJQsqaUBKTNV-1">
          <mxGeometry x="120" y="39.5" width="120" height="20" as="geometry" />
        </mxCell>
        <mxCell id="bpSx_ZteRgmQ5gLjHNtr-39" value="&lt;span style=&quot;font-family: &amp;#34;times new roman&amp;#34; ; font-size: 18px&quot;&gt;1..*&lt;/span&gt;" style="text;html=1;align=center;verticalAlign=middle;resizable=0;points=[];autosize=1;" vertex="1" parent="WIyWlLk6GJQsqaUBKTNV-1">
          <mxGeometry x="460" y="120" width="40" height="20" as="geometry" />
        </mxCell>
        <mxCell id="bpSx_ZteRgmQ5gLjHNtr-40" value="&lt;span style=&quot;font-family: &amp;#34;times new roman&amp;#34; ; font-size: 18px&quot;&gt;1..*&lt;/span&gt;" style="text;html=1;align=center;verticalAlign=middle;resizable=0;points=[];autosize=1;" vertex="1" parent="WIyWlLk6GJQsqaUBKTNV-1">
          <mxGeometry x="460" y="180" width="40" height="20" as="geometry" />
        </mxCell>
        <mxCell id="bpSx_ZteRgmQ5gLjHNtr-41" value="rules_for_roles" style="swimlane;fontStyle=0;align=center;verticalAlign=top;childLayout=stackLayout;horizontal=1;startSize=26;horizontalStack=0;resizeParent=1;resizeLast=0;collapsible=1;marginBottom=0;rounded=0;shadow=0;strokeWidth=1;" vertex="1" parent="WIyWlLk6GJQsqaUBKTNV-1">
          <mxGeometry x="640" y="100" width="200" height="120" as="geometry">
            <mxRectangle x="330" y="360" width="170" height="26" as="alternateBounds" />
          </mxGeometry>
        </mxCell>
        <mxCell id="bpSx_ZteRgmQ5gLjHNtr-42" value="id serial primary key,&#xa;role_id int referrences role(id),&#xa;rules_id int references rule(id)" style="text;align=left;verticalAlign=top;spacingLeft=4;spacingRight=4;overflow=hidden;rotatable=0;points=[[0,0.5],[1,0.5]];portConstraint=eastwest;" vertex="1" parent="bpSx_ZteRgmQ5gLjHNtr-41">
          <mxGeometry y="26" width="200" height="54" as="geometry" />
        </mxCell>
        <mxCell id="bpSx_ZteRgmQ5gLjHNtr-43" value="" style="line;html=1;strokeWidth=1;align=left;verticalAlign=middle;spacingTop=-1;spacingLeft=3;spacingRight=3;rotatable=0;labelPosition=right;points=[];portConstraint=eastwest;" vertex="1" parent="bpSx_ZteRgmQ5gLjHNtr-41">
          <mxGeometry y="80" width="200" height="8" as="geometry" />
        </mxCell>
        <mxCell id="bpSx_ZteRgmQ5gLjHNtr-44" style="edgeStyle=orthogonalEdgeStyle;rounded=0;orthogonalLoop=1;jettySize=auto;html=1;entryX=0.5;entryY=0;entryDx=0;entryDy=0;dashed=1;" edge="1" parent="WIyWlLk6GJQsqaUBKTNV-1" target="bpSx_ZteRgmQ5gLjHNtr-41">
          <mxGeometry relative="1" as="geometry">
            <mxPoint x="560" y="60" as="sourcePoint" />
            <mxPoint x="720" y="60" as="targetPoint" />
          </mxGeometry>
        </mxCell>
        <mxCell id="bpSx_ZteRgmQ5gLjHNtr-45" value="&lt;font face=&quot;Times New Roman&quot; style=&quot;font-size: 18px&quot;&gt;1&lt;/font&gt;" style="text;html=1;align=center;verticalAlign=middle;resizable=0;points=[];autosize=1;" vertex="1" parent="WIyWlLk6GJQsqaUBKTNV-1">
          <mxGeometry x="740" y="80" width="20" height="20" as="geometry" />
        </mxCell>
        <mxCell id="bpSx_ZteRgmQ5gLjHNtr-46" value="&lt;span style=&quot;font-family: &amp;#34;times new roman&amp;#34; ; font-size: 18px&quot;&gt;1..*&lt;/span&gt;" style="text;html=1;align=center;verticalAlign=middle;resizable=0;points=[];autosize=1;" vertex="1" parent="WIyWlLk6GJQsqaUBKTNV-1">
          <mxGeometry x="560" y="60" width="40" height="20" as="geometry" />
        </mxCell>
        <mxCell id="bpSx_ZteRgmQ5gLjHNtr-47" style="edgeStyle=orthogonalEdgeStyle;rounded=0;orthogonalLoop=1;jettySize=auto;html=1;exitX=1;exitY=0.5;exitDx=0;exitDy=0;dashed=1;" edge="1" parent="WIyWlLk6GJQsqaUBKTNV-1" source="bpSx_ZteRgmQ5gLjHNtr-8">
          <mxGeometry relative="1" as="geometry">
            <mxPoint x="750" y="220" as="targetPoint" />
          </mxGeometry>
        </mxCell>
        <mxCell id="bpSx_ZteRgmQ5gLjHNtr-48" value="&lt;span style=&quot;font-family: &amp;#34;times new roman&amp;#34; ; font-size: 18px&quot;&gt;1..*&lt;/span&gt;" style="text;html=1;align=center;verticalAlign=middle;resizable=0;points=[];autosize=1;" vertex="1" parent="WIyWlLk6GJQsqaUBKTNV-1">
          <mxGeometry x="560" y="260" width="40" height="20" as="geometry" />
        </mxCell>
        <mxCell id="bpSx_ZteRgmQ5gLjHNtr-49" value="&lt;font face=&quot;Times New Roman&quot; style=&quot;font-size: 18px&quot;&gt;1&lt;/font&gt;" style="text;html=1;align=center;verticalAlign=middle;resizable=0;points=[];autosize=1;" vertex="1" parent="WIyWlLk6GJQsqaUBKTNV-1">
          <mxGeometry x="750" y="220" width="20" height="20" as="geometry" />
        </mxCell>
        <mxCell id="bpSx_ZteRgmQ5gLjHNtr-0" value="user" style="swimlane;fontStyle=0;align=center;verticalAlign=top;childLayout=stackLayout;horizontal=1;startSize=26;horizontalStack=0;resizeParent=1;resizeLast=0;collapsible=1;marginBottom=0;rounded=0;shadow=0;strokeWidth=1;" vertex="1" parent="WIyWlLk6GJQsqaUBKTNV-1">
          <mxGeometry x="40" y="200" width="200" height="120" as="geometry">
            <mxRectangle x="330" y="360" width="170" height="26" as="alternateBounds" />
          </mxGeometry>
        </mxCell>
        <mxCell id="bpSx_ZteRgmQ5gLjHNtr-1" value="id serial primary key,&#xa;name varcar(2000),&#xa;item_id int reference item(id)" style="text;align=left;verticalAlign=top;spacingLeft=4;spacingRight=4;overflow=hidden;rotatable=0;points=[[0,0.5],[1,0.5]];portConstraint=eastwest;" vertex="1" parent="bpSx_ZteRgmQ5gLjHNtr-0">
          <mxGeometry y="26" width="200" height="54" as="geometry" />
        </mxCell>
        <mxCell id="bpSx_ZteRgmQ5gLjHNtr-2" value="" style="line;html=1;strokeWidth=1;align=left;verticalAlign=middle;spacingTop=-1;spacingLeft=3;spacingRight=3;rotatable=0;labelPosition=right;points=[];portConstraint=eastwest;" vertex="1" parent="bpSx_ZteRgmQ5gLjHNtr-0">
          <mxGeometry y="80" width="200" height="8" as="geometry" />
        </mxCell>
        <mxCell id="bpSx_ZteRgmQ5gLjHNtr-52" value="item" style="swimlane;fontStyle=0;align=center;verticalAlign=top;childLayout=stackLayout;horizontal=1;startSize=26;horizontalStack=0;resizeParent=1;resizeLast=0;collapsible=1;marginBottom=0;rounded=0;shadow=0;strokeWidth=1;" vertex="1" parent="WIyWlLk6GJQsqaUBKTNV-1">
          <mxGeometry x="40" y="400" width="200" height="120" as="geometry">
            <mxRectangle x="330" y="360" width="170" height="26" as="alternateBounds" />
          </mxGeometry>
        </mxCell>
        <mxCell id="bpSx_ZteRgmQ5gLjHNtr-53" value="id serial primary key,&#xa;name varcar(2000),&#xa;attach_id int reference attach(id),&#xa;comments_id int reference(id)" style="text;align=left;verticalAlign=top;spacingLeft=4;spacingRight=4;overflow=hidden;rotatable=0;points=[[0,0.5],[1,0.5]];portConstraint=eastwest;" vertex="1" parent="bpSx_ZteRgmQ5gLjHNtr-52">
          <mxGeometry y="26" width="200" height="74" as="geometry" />
        </mxCell>
        <mxCell id="bpSx_ZteRgmQ5gLjHNtr-54" value="" style="line;html=1;strokeWidth=1;align=left;verticalAlign=middle;spacingTop=-1;spacingLeft=3;spacingRight=3;rotatable=0;labelPosition=right;points=[];portConstraint=eastwest;" vertex="1" parent="bpSx_ZteRgmQ5gLjHNtr-52">
          <mxGeometry y="100" width="200" height="8" as="geometry" />
        </mxCell>
        <mxCell id="bpSx_ZteRgmQ5gLjHNtr-55" value="attach" style="swimlane;fontStyle=0;align=center;verticalAlign=top;childLayout=stackLayout;horizontal=1;startSize=26;horizontalStack=0;resizeParent=1;resizeLast=0;collapsible=1;marginBottom=0;rounded=0;shadow=0;strokeWidth=1;" vertex="1" parent="WIyWlLk6GJQsqaUBKTNV-1">
          <mxGeometry x="360" y="400" width="200" height="120" as="geometry">
            <mxRectangle x="330" y="360" width="170" height="26" as="alternateBounds" />
          </mxGeometry>
        </mxCell>
        <mxCell id="bpSx_ZteRgmQ5gLjHNtr-56" value="id serial primary key,&#xa;name varcar(2000)&#xa;" style="text;align=left;verticalAlign=top;spacingLeft=4;spacingRight=4;overflow=hidden;rotatable=0;points=[[0,0.5],[1,0.5]];portConstraint=eastwest;" vertex="1" parent="bpSx_ZteRgmQ5gLjHNtr-55">
          <mxGeometry y="26" width="200" height="54" as="geometry" />
        </mxCell>
        <mxCell id="bpSx_ZteRgmQ5gLjHNtr-57" value="" style="line;html=1;strokeWidth=1;align=left;verticalAlign=middle;spacingTop=-1;spacingLeft=3;spacingRight=3;rotatable=0;labelPosition=right;points=[];portConstraint=eastwest;" vertex="1" parent="bpSx_ZteRgmQ5gLjHNtr-55">
          <mxGeometry y="80" width="200" height="8" as="geometry" />
        </mxCell>
        <mxCell id="bpSx_ZteRgmQ5gLjHNtr-58" value="comments" style="swimlane;fontStyle=0;align=center;verticalAlign=top;childLayout=stackLayout;horizontal=1;startSize=26;horizontalStack=0;resizeParent=1;resizeLast=0;collapsible=1;marginBottom=0;rounded=0;shadow=0;strokeWidth=1;" vertex="1" parent="WIyWlLk6GJQsqaUBKTNV-1">
          <mxGeometry x="360" y="600" width="200" height="120" as="geometry">
            <mxRectangle x="330" y="360" width="170" height="26" as="alternateBounds" />
          </mxGeometry>
        </mxCell>
        <mxCell id="bpSx_ZteRgmQ5gLjHNtr-59" value="id serial primary key,&#xa;name varcar(2000)&#xa;" style="text;align=left;verticalAlign=top;spacingLeft=4;spacingRight=4;overflow=hidden;rotatable=0;points=[[0,0.5],[1,0.5]];portConstraint=eastwest;" vertex="1" parent="bpSx_ZteRgmQ5gLjHNtr-58">
          <mxGeometry y="26" width="200" height="54" as="geometry" />
        </mxCell>
        <mxCell id="bpSx_ZteRgmQ5gLjHNtr-60" value="" style="line;html=1;strokeWidth=1;align=left;verticalAlign=middle;spacingTop=-1;spacingLeft=3;spacingRight=3;rotatable=0;labelPosition=right;points=[];portConstraint=eastwest;" vertex="1" parent="bpSx_ZteRgmQ5gLjHNtr-58">
          <mxGeometry y="80" width="200" height="8" as="geometry" />
        </mxCell>
        <mxCell id="bpSx_ZteRgmQ5gLjHNtr-61" value="category" style="swimlane;fontStyle=0;align=center;verticalAlign=top;childLayout=stackLayout;horizontal=1;startSize=26;horizontalStack=0;resizeParent=1;resizeLast=0;collapsible=1;marginBottom=0;rounded=0;shadow=0;strokeWidth=1;" vertex="1" parent="WIyWlLk6GJQsqaUBKTNV-1">
          <mxGeometry x="40" y="600" width="200" height="120" as="geometry">
            <mxRectangle x="330" y="360" width="170" height="26" as="alternateBounds" />
          </mxGeometry>
        </mxCell>
        <mxCell id="bpSx_ZteRgmQ5gLjHNtr-62" value="id serial primary key,&#xa;name varcar(2000),&#xa;item_id int reference (id)" style="text;align=left;verticalAlign=top;spacingLeft=4;spacingRight=4;overflow=hidden;rotatable=0;points=[[0,0.5],[1,0.5]];portConstraint=eastwest;" vertex="1" parent="bpSx_ZteRgmQ5gLjHNtr-61">
          <mxGeometry y="26" width="200" height="54" as="geometry" />
        </mxCell>
        <mxCell id="bpSx_ZteRgmQ5gLjHNtr-63" value="" style="line;html=1;strokeWidth=1;align=left;verticalAlign=middle;spacingTop=-1;spacingLeft=3;spacingRight=3;rotatable=0;labelPosition=right;points=[];portConstraint=eastwest;" vertex="1" parent="bpSx_ZteRgmQ5gLjHNtr-61">
          <mxGeometry y="80" width="200" height="8" as="geometry" />
        </mxCell>
        <mxCell id="bpSx_ZteRgmQ5gLjHNtr-67" style="edgeStyle=orthogonalEdgeStyle;rounded=0;orthogonalLoop=1;jettySize=auto;html=1;entryX=0;entryY=0.5;entryDx=0;entryDy=0;" edge="1" parent="WIyWlLk6GJQsqaUBKTNV-1">
          <mxGeometry relative="1" as="geometry">
            <mxPoint x="240" y="460" as="sourcePoint" />
            <mxPoint x="360" y="460" as="targetPoint" />
          </mxGeometry>
        </mxCell>
        <mxCell id="bpSx_ZteRgmQ5gLjHNtr-68" value="&lt;font face=&quot;Times New Roman&quot; style=&quot;font-size: 18px&quot;&gt;1..*&lt;/font&gt;" style="text;html=1;align=center;verticalAlign=middle;resizable=0;points=[];autosize=1;" vertex="1" parent="WIyWlLk6GJQsqaUBKTNV-1">
          <mxGeometry x="320" y="467" width="40" height="20" as="geometry" />
        </mxCell>
        <mxCell id="bpSx_ZteRgmQ5gLjHNtr-69" value="&lt;font face=&quot;Times New Roman&quot; style=&quot;font-size: 18px&quot;&gt;1&lt;/font&gt;" style="text;html=1;align=center;verticalAlign=middle;resizable=0;points=[];autosize=1;" vertex="1" parent="WIyWlLk6GJQsqaUBKTNV-1">
          <mxGeometry x="240" y="467" width="20" height="20" as="geometry" />
        </mxCell>
        <mxCell id="bpSx_ZteRgmQ5gLjHNtr-74" style="edgeStyle=orthogonalEdgeStyle;rounded=0;orthogonalLoop=1;jettySize=auto;html=1;" edge="1" parent="WIyWlLk6GJQsqaUBKTNV-1" target="bpSx_ZteRgmQ5gLjHNtr-58">
          <mxGeometry relative="1" as="geometry">
            <mxPoint x="240" y="459.5" as="sourcePoint" />
            <mxPoint x="470" y="580" as="targetPoint" />
            <Array as="points">
              <mxPoint x="300" y="460" />
              <mxPoint x="300" y="560" />
              <mxPoint x="450" y="560" />
            </Array>
          </mxGeometry>
        </mxCell>
        <mxCell id="bpSx_ZteRgmQ5gLjHNtr-75" value="&lt;font face=&quot;Times New Roman&quot; style=&quot;font-size: 18px&quot;&gt;1..*&lt;/font&gt;" style="text;html=1;align=center;verticalAlign=middle;resizable=0;points=[];autosize=1;" vertex="1" parent="WIyWlLk6GJQsqaUBKTNV-1">
          <mxGeometry x="450" y="580" width="40" height="20" as="geometry" />
        </mxCell>
        <mxCell id="bpSx_ZteRgmQ5gLjHNtr-78" style="edgeStyle=orthogonalEdgeStyle;rounded=0;orthogonalLoop=1;jettySize=auto;html=1;exitX=0.5;exitY=1;exitDx=0;exitDy=0;entryX=0.5;entryY=0;entryDx=0;entryDy=0;" edge="1" parent="WIyWlLk6GJQsqaUBKTNV-1" source="bpSx_ZteRgmQ5gLjHNtr-52" target="bpSx_ZteRgmQ5gLjHNtr-61">
          <mxGeometry relative="1" as="geometry">
            <mxPoint x="60" y="560" as="sourcePoint" />
            <mxPoint x="220" y="560" as="targetPoint" />
          </mxGeometry>
        </mxCell>
        <mxCell id="bpSx_ZteRgmQ5gLjHNtr-79" value="&lt;font face=&quot;Times New Roman&quot; style=&quot;font-size: 18px&quot;&gt;1&lt;/font&gt;" style="text;html=1;align=center;verticalAlign=middle;resizable=0;points=[];autosize=1;" vertex="1" parent="WIyWlLk6GJQsqaUBKTNV-1">
          <mxGeometry x="110" y="580" width="20" height="20" as="geometry" />
        </mxCell>
        <mxCell id="bpSx_ZteRgmQ5gLjHNtr-80" value="&lt;span style=&quot;font-family: &amp;#34;times new roman&amp;#34; ; font-size: 18px&quot;&gt;1..*&lt;/span&gt;" style="text;html=1;align=center;verticalAlign=middle;resizable=0;points=[];autosize=1;" vertex="1" parent="WIyWlLk6GJQsqaUBKTNV-1">
          <mxGeometry x="100" y="520" width="40" height="20" as="geometry" />
        </mxCell>
        <mxCell id="bpSx_ZteRgmQ5gLjHNtr-83" style="edgeStyle=orthogonalEdgeStyle;rounded=0;orthogonalLoop=1;jettySize=auto;html=1;entryX=0.5;entryY=1;entryDx=0;entryDy=0;exitX=0.5;exitY=0;exitDx=0;exitDy=0;" edge="1" parent="WIyWlLk6GJQsqaUBKTNV-1" source="bpSx_ZteRgmQ5gLjHNtr-52" target="bpSx_ZteRgmQ5gLjHNtr-0">
          <mxGeometry relative="1" as="geometry">
            <mxPoint x="80" y="373" as="sourcePoint" />
            <mxPoint x="200" y="373" as="targetPoint" />
          </mxGeometry>
        </mxCell>
        <mxCell id="bpSx_ZteRgmQ5gLjHNtr-84" value="&lt;font face=&quot;Times New Roman&quot; style=&quot;font-size: 18px&quot;&gt;1..*&lt;/font&gt;" style="text;html=1;align=center;verticalAlign=middle;resizable=0;points=[];autosize=1;" vertex="1" parent="WIyWlLk6GJQsqaUBKTNV-1">
          <mxGeometry x="100" y="380" width="40" height="20" as="geometry" />
        </mxCell>
        <mxCell id="bpSx_ZteRgmQ5gLjHNtr-85" value="&lt;font face=&quot;Times New Roman&quot; style=&quot;font-size: 18px&quot;&gt;1&lt;/font&gt;" style="text;html=1;align=center;verticalAlign=middle;resizable=0;points=[];autosize=1;" vertex="1" parent="WIyWlLk6GJQsqaUBKTNV-1">
          <mxGeometry x="100" y="320" width="20" height="20" as="geometry" />
        </mxCell>
        <mxCell id="bpSx_ZteRgmQ5gLjHNtr-64" value="state" style="swimlane;fontStyle=0;align=center;verticalAlign=top;childLayout=stackLayout;horizontal=1;startSize=26;horizontalStack=0;resizeParent=1;resizeLast=0;collapsible=1;marginBottom=0;rounded=0;shadow=0;strokeWidth=1;" vertex="1" parent="WIyWlLk6GJQsqaUBKTNV-1">
          <mxGeometry x="-280" y="400" width="200" height="120" as="geometry">
            <mxRectangle x="330" y="360" width="170" height="26" as="alternateBounds" />
          </mxGeometry>
        </mxCell>
        <mxCell id="bpSx_ZteRgmQ5gLjHNtr-65" value="id serial primary key,&#xa;name varcar(2000),&#xa;item_id int reference(id)" style="text;align=left;verticalAlign=top;spacingLeft=4;spacingRight=4;overflow=hidden;rotatable=0;points=[[0,0.5],[1,0.5]];portConstraint=eastwest;" vertex="1" parent="bpSx_ZteRgmQ5gLjHNtr-64">
          <mxGeometry y="26" width="200" height="54" as="geometry" />
        </mxCell>
        <mxCell id="bpSx_ZteRgmQ5gLjHNtr-66" value="" style="line;html=1;strokeWidth=1;align=left;verticalAlign=middle;spacingTop=-1;spacingLeft=3;spacingRight=3;rotatable=0;labelPosition=right;points=[];portConstraint=eastwest;" vertex="1" parent="bpSx_ZteRgmQ5gLjHNtr-64">
          <mxGeometry y="80" width="200" height="8" as="geometry" />
        </mxCell>
        <mxCell id="bpSx_ZteRgmQ5gLjHNtr-86" value="&lt;font face=&quot;Times New Roman&quot; style=&quot;font-size: 18px&quot;&gt;1..*&lt;/font&gt;" style="text;html=1;align=center;verticalAlign=middle;resizable=0;points=[];autosize=1;" vertex="1" parent="WIyWlLk6GJQsqaUBKTNV-1">
          <mxGeometry y="467" width="40" height="20" as="geometry" />
        </mxCell>
        <mxCell id="bpSx_ZteRgmQ5gLjHNtr-87" value="&lt;font face=&quot;Times New Roman&quot; style=&quot;font-size: 18px&quot;&gt;1&lt;/font&gt;" style="text;html=1;align=center;verticalAlign=middle;resizable=0;points=[];autosize=1;" vertex="1" parent="WIyWlLk6GJQsqaUBKTNV-1">
          <mxGeometry x="-80" y="467" width="20" height="20" as="geometry" />
        </mxCell>
        <mxCell id="bpSx_ZteRgmQ5gLjHNtr-88" style="edgeStyle=orthogonalEdgeStyle;rounded=0;orthogonalLoop=1;jettySize=auto;html=1;entryX=1;entryY=0.5;entryDx=0;entryDy=0;" edge="1" parent="WIyWlLk6GJQsqaUBKTNV-1" source="bpSx_ZteRgmQ5gLjHNtr-53" target="bpSx_ZteRgmQ5gLjHNtr-65">
          <mxGeometry relative="1" as="geometry">
            <mxPoint x="370" y="470" as="sourcePoint" />
            <mxPoint x="250" y="470" as="targetPoint" />
            <Array as="points">
              <mxPoint y="453" />
              <mxPoint y="453" />
            </Array>
          </mxGeometry>
        </mxCell>
      </root>
    </mxGraphModel>
  </diagram>
</mxfile>
